<svg width="24" height="38" viewBox="0 0 24 38" fill="none" xmlns="http://www.w3.org/2000/svg">
<path fill-rule="evenodd" clip-rule="evenodd" d="M6.16634 3.86995C4.78563 3.86995 3.66634 4.98924 3.66634 6.36995V31.6304C3.66634 33.0111 4.78563 34.1304 6.16634 34.1304H17.833C19.2137 34.1304 20.333 33.0111 20.333 31.6304V6.36995C20.333 4.98924 19.2137 3.86995 17.833 3.86995H17.694L17.2881 4.84404C17.0293 5.46507 16.4225 5.86958 15.7497 5.86958H8.24967C7.57688 5.86958 6.97006 5.46507 6.71126 4.84404L6.30531 3.86995H6.16634ZM0.333008 6.36995C0.333008 3.14829 2.94468 0.536621 6.16634 0.536621H17.833C21.0547 0.536621 23.6663 3.14829 23.6663 6.36995V31.6304C23.6663 34.852 21.0547 37.4637 17.833 37.4637H6.16634C2.94468 37.4637 0.333008 34.852 0.333008 31.6304V6.36995Z" fill="#FF5A30"/>
</svg>
