<svg width="16" height="14" viewBox="0 0 16 14" fill="none" xmlns="http://www.w3.org/2000/svg">
<path fill-rule="evenodd" clip-rule="evenodd" d="M7.99925 12.272C4.93321 10.5257 3.22318 8.79004 2.39626 7.2841C1.54992 5.74277 1.62377 4.44459 2.0934 3.52322C3.05872 1.6294 5.80378 1.02382 7.4763 3.13914L7.99921 3.8005L8.52217 3.13917C10.195 1.02376 12.9402 1.62945 13.9055 3.52322C14.3751 4.44457 14.4489 5.74275 13.6025 7.28408C12.7756 8.79003 11.0654 10.5257 7.99925 12.272ZM7.99928 1.73775C5.64647 -0.497993 2.17555 0.426034 0.905488 2.91772C0.20846 4.28519 0.198939 6.05261 1.22753 7.92585C2.247 9.78247 4.2796 11.7422 7.67675 13.6199L7.99924 13.7981L8.32173 13.6199C11.719 11.7422 13.7517 9.78248 14.7712 7.92586C15.7999 6.05263 15.7904 4.28521 15.0934 2.91772C13.8233 0.425986 10.3523 -0.497959 7.99928 1.73775Z" fill="#FF5A30"/>
</svg>
