<!-- Generated by IcoMoon.io -->
<svg version="1.1" xmlns="http://www.w3.org/2000/svg" width="1024" height="1024" viewBox="0 0 1024 1024">
<title></title>
<g id="icomoon-ignore">
</g>
<path d="M973.084 462.145c-6.736 46.669-22.701 91.022-46.359 131.81 1.774 10.096 2.685 20.306 2.685 30.556 0 35.604-10.318 69.679-29.426 100.638-9.541 15.454-11.995 33.561-12.937 45.525-1.084 13.712-0.718 28.715 0.262 43.127 1.098 16.169 3.085 33.144 5.361 49.157-18.459-5.383-38.467-10.789-57.563-15.096-15.882-3.584-32.133-6.638-46.853-8.158-12.84-1.326-31.396-2.352-47.988 3.011-36.28 11.728-76.2 18.272-118.271 18.272-50.034 0-95.984-8.882-136.263-24.311-9.688 0.44-19.447 0.661-29.27 0.661-56.97 0-111.801-7.491-163.104-21.339 74.58 86.26 197.531 139.577 328.637 139.577 51.217 0 100.374-7.863 145.678-22.312 0.080 0.003 0.224 0 0.437-0.006 1.164-0.022 4.393-0.085 10.425 0.536 9.486 0.979 21.686 3.164 35.758 6.339 28.017 6.319 59.498 15.647 84.032 23.433 52.031 16.518 102.446-28.888 93.147-81.688-4.002-22.724-8.162-50.46-9.793-74.486-0.82-12.080-0.911-21.998-0.335-29.274 0.238-3.016 0.542-4.906 0.735-5.91 26.609-44.077 41.921-94.265 41.921-147.695 0-60.233-18.709-115.232-50.914-162.366z"></path>
<path d="M200.952 231.891c-63.751 48.751-99.179 112.747-99.179 179.807 0 33.439 8.705 65.643 25.037 95.593 6.221 11.407 7.985 23.173 8.616 31.138 0.688 8.686 0.345 17.614-0.41 25.961-1.512 16.711-5.12 35.647-9.446 54.299-5.061 21.816-11.547 45.082-18.128 66.929 24.984-9.081 52.29-18.385 78.176-25.939 20.921-6.104 42.051-11.399 60.854-14.372 16.2-2.563 39.705-5.079 59.943 1.924 45.419 15.713 96.228 24.588 150.068 24.588 101.549 0 191.736-31.529 255.533-80.315 63.751-48.751 99.177-112.747 99.177-179.807s-35.425-131.055-99.177-179.807c-63.797-48.784-153.984-80.314-255.533-80.314s-191.736 31.529-255.529 80.314zM143.494 156.754c81.703-62.478 192.517-99.765 312.988-99.765 120.474 0 231.287 37.288 312.99 99.765 81.745 62.511 136.31 152.224 136.31 254.944s-54.565 192.431-136.31 254.943c-81.703 62.48-192.516 99.766-312.99 99.766-63.518 0-124.19-10.354-179.281-29.197-0.054 0.153-4.524-0.284-15.956 1.524-13.179 2.086-30 6.166-49.135 11.751-38.095 11.112-80.875 26.836-113.46 39.518-56.452 21.97-113.96-32.248-94.94-90 10.080-30.61 21.97-69.29 29.719-102.689 3.904-16.828 6.437-30.973 7.385-41.447 0.329-3.638 0.415-6.288 0.395-8.079-21.769-41.601-34.023-87.602-34.023-136.089 0-102.721 54.564-192.433 136.309-254.944zM41.052 545.207c0.004-0.006 0.028 0.12 0.055 0.395-0.045-0.253-0.060-0.389-0.055-0.395z"></path>
</svg>
