<svg width="30" height="26" viewBox="0 0 30 26" fill="none" xmlns="http://www.w3.org/2000/svg">
<path fill-rule="evenodd" clip-rule="evenodd" d="M14.9994 23.7136C8.63133 20.135 5.03188 16.5349 3.28215 13.3484C1.50973 10.1205 1.62928 7.31887 2.66804 5.28097C4.77485 1.14769 10.7797 -0.177008 14.4111 4.41591L14.9994 5.15995L15.5877 4.41595C19.2197 -0.177069 25.2248 1.14773 27.3316 5.28096C28.3704 7.31885 28.4899 10.1205 26.7173 13.3484C24.9675 16.5349 21.3678 20.135 14.9994 23.7136ZM14.9995 2.80264C10.5891 -1.89128 3.77974 -0.203084 1.33163 4.59977C0.0370598 7.13955 -0.010124 10.4691 1.96733 14.0704C3.93451 17.6529 7.89823 21.5042 14.6366 25.2286L14.9994 25.4291L15.3622 25.2286C22.1009 21.5042 26.0648 17.6529 28.0321 14.0704C30.0097 10.4691 29.9626 7.13956 28.668 4.59977C26.2199 -0.203142 19.4103 -1.89124 14.9995 2.80264Z" fill="#1A1A1A"/>
</svg>
