<svg width="23" height="23" viewBox="0 0 23 23" fill="none" xmlns="http://www.w3.org/2000/svg">
<path fill-rule="evenodd" clip-rule="evenodd" d="M13.7117 2.18021C13.8193 1.78021 14.2308 1.54316 14.6308 1.65074C16.241 2.08383 17.7092 2.93242 18.8883 4.11151C20.0674 5.29061 20.916 6.75882 21.3491 8.36909C21.4567 8.76908 21.2196 9.18056 20.8196 9.28814C20.4196 9.39572 20.0082 9.15867 19.9006 8.75867C19.5358 7.40221 18.8209 6.16542 17.8277 5.17217C16.8344 4.17893 15.5976 3.46409 14.2412 3.09927C13.8412 2.99168 13.6041 2.58021 13.7117 2.18021Z" fill="white"/>
<path fill-rule="evenodd" clip-rule="evenodd" d="M12.8063 5.56203C12.9139 5.16203 13.3254 4.92501 13.7254 5.03262C14.7421 5.30615 15.6691 5.84198 16.4136 6.58646C17.1581 7.33094 17.6939 8.25794 17.9675 9.27465C18.0751 9.67464 17.838 10.0861 17.438 10.1937C17.0381 10.3013 16.6266 10.0643 16.519 9.66434C16.3137 8.9014 15.9116 8.20578 15.353 7.64712C14.7943 7.08846 14.0987 6.68637 13.3357 6.48112C12.9357 6.37351 12.6987 5.96202 12.8063 5.56203Z" fill="white"/>
<path fill-rule="evenodd" clip-rule="evenodd" d="M6.05133 2.28643C4.96685 2.42601 3.97022 2.9556 3.24764 3.77636C2.52422 4.59808 2.1251 5.65529 2.125 6.75007C2.125 10.4963 3.61317 14.0889 6.26212 16.7379C8.91106 19.3868 12.5038 20.875 16.2499 20.875M6.05133 2.28643C6.07716 2.28364 6.10322 2.28915 6.12574 2.30218C6.14869 2.31546 6.16671 2.33584 6.17708 2.36025L8.37554 7.48884C8.3755 7.48874 8.37559 7.48894 8.37554 7.48884C8.38353 7.50768 8.38689 7.5285 8.38509 7.54889C8.38328 7.56936 8.37645 7.58907 8.36521 7.60628C8.36522 7.60626 8.3652 7.6063 8.36521 7.60628L6.54669 10.3848C6.54639 10.3852 6.54608 10.3857 6.54578 10.3862C6.39236 10.6193 6.30183 10.8881 6.283 11.1665C6.26413 11.4455 6.31789 11.7247 6.43904 11.9767L7.11494 11.6518L6.44123 11.9812C7.42238 13.9877 9.04857 15.6069 11.0593 16.5794L11.0648 16.582C11.3188 16.7024 11.5999 16.7544 11.8802 16.7329C12.1594 16.7115 12.4283 16.618 12.6604 16.4614L15.3972 14.6375C15.4145 14.6259 15.4349 14.6185 15.4556 14.6166C15.4761 14.6147 15.4969 14.6179 15.5159 14.626C15.5158 14.6259 15.516 14.626 15.5159 14.626L20.6384 16.822L20.6406 16.8229C20.665 16.8333 20.6854 16.8513 20.6987 16.8743C20.712 16.8972 20.7174 16.9239 20.7143 16.9502L21.4589 17.04L20.7149 16.9448C20.5759 18.0308 20.0459 19.029 19.224 19.7524C18.4022 20.4758 17.3448 20.8749 16.2499 20.875M7.79036 11.3256C8.6235 13.0276 10.003 14.4012 11.7085 15.2272C11.7264 15.2353 11.746 15.2388 11.7656 15.2373C11.7858 15.2358 11.8052 15.229 11.8219 15.2176L11.8266 15.2145L14.5648 13.3896C14.7893 13.2398 15.0482 13.148 15.3169 13.123C15.5859 13.0981 15.8569 13.1405 16.1053 13.2466L16.1063 13.247L21.2271 15.4423C21.2275 15.4425 21.2279 15.4427 21.2283 15.4428C21.5514 15.5804 21.8212 15.8191 21.997 16.1231C22.1731 16.4274 22.2456 16.7807 22.2035 17.1298L22.2028 17.1352C22.0175 18.5831 21.3108 19.9139 20.2151 20.8783C19.1194 21.8428 17.7098 22.3749 16.2501 22.375C12.106 22.375 8.13171 20.7288 5.20146 17.7985C2.2712 14.8683 0.625 10.894 0.625 6.75C0.625134 5.29036 1.15727 3.88075 2.12178 2.78518C3.08629 1.68962 4.41704 0.983155 5.86489 0.798055L5.8702 0.797376C6.21929 0.755278 6.5726 0.827747 6.87694 1.00384C7.18091 1.17971 7.41959 1.44945 7.55715 1.77254C7.55732 1.77294 7.5575 1.77335 7.55767 1.77375L9.75521 6.90016C9.86019 7.1462 9.9028 7.41436 9.87928 7.68082C9.85575 7.94729 9.7668 8.20382 9.62033 8.42766L7.80029 11.2085L7.79881 11.2107C7.78758 11.2278 7.78096 11.2474 7.77958 11.2677C7.77823 11.2876 7.78195 11.3075 7.79036 11.3256Z" fill="white"/>
</svg>
