<svg width="34" height="35" viewBox="0 0 34 35" fill="none" xmlns="http://www.w3.org/2000/svg">
<mask id="mask0_2417_754" style="mask-type:luminance" maskUnits="userSpaceOnUse" x="0" y="7" width="34" height="28">
<path fill-rule="evenodd" clip-rule="evenodd" d="M0 7.66797H33.082V34.9999H0V7.66797Z" fill="white"/>
</mask>
<g mask="url(#mask0_2417_754)">
<path fill-rule="evenodd" clip-rule="evenodd" d="M7.96182 10.2016C7.21694 10.2016 4.72724 10.5022 4.01276 14.3601L2.7088 24.4945C2.28484 27.3372 2.61252 29.3945 3.68508 30.6394C4.74413 31.869 6.63927 32.467 9.47692 32.467H23.5773C25.3475 32.467 27.7645 32.1139 29.2239 30.4282C30.3826 29.0922 30.7812 27.1025 30.4096 24.5131L29.0938 14.2908C28.5331 11.7724 27.0534 10.2016 25.1549 10.2016H7.96182ZM23.5804 35.0006H9.47999C5.8603 35.0006 3.33851 34.1138 1.76936 32.2913C0.193451 30.4637 -0.33354 27.7224 0.203586 24.1449L1.51431 13.9665C2.37574 9.29962 5.52586 7.66797 7.96489 7.66797H25.158C27.6071 7.66797 30.585 9.29455 31.59 13.8567L32.9227 24.1719C33.4007 27.5011 32.8027 30.1715 31.1424 32.0869C29.4905 33.9922 26.8758 35.0006 23.5804 35.0006Z" fill="white"/>
</g>
<path fill-rule="evenodd" clip-rule="evenodd" d="M23.8137 9.83042C23.1144 9.83042 22.5468 9.26289 22.5468 8.56361C22.5468 5.23782 19.8409 2.53361 16.5168 2.53361H16.4915C14.9021 2.53361 13.3532 3.17377 12.23 4.29025C11.1017 5.41349 10.4548 6.9725 10.4548 8.56361C10.4548 9.26289 9.88723 9.83042 9.18795 9.83042C8.48867 9.83042 7.92114 9.26289 7.92114 8.56361C7.92114 6.30194 8.84 4.09094 10.4412 2.49476C12.0374 0.908722 14.2383 0 16.4864 0H16.5219C21.2395 0 25.0805 3.84096 25.0805 8.56361C25.0805 9.26289 24.5129 9.83042 23.8137 9.83042Z" fill="white"/>
<path fill-rule="evenodd" clip-rule="evenodd" d="M21.5276 17.4381H21.4499C20.7506 17.4381 20.1831 16.8706 20.1831 16.1713C20.1831 15.472 20.7506 14.9045 21.4499 14.9045C22.1492 14.9045 22.7556 15.472 22.7556 16.1713C22.7556 16.8706 22.2269 17.4381 21.5276 17.4381Z" fill="white"/>
<path fill-rule="evenodd" clip-rule="evenodd" d="M11.6736 17.4381H11.5976C10.8983 17.4381 10.3308 16.8706 10.3308 16.1713C10.3308 15.472 10.8983 14.9045 11.5976 14.9045C12.2969 14.9045 12.9033 15.472 12.9033 16.1713C12.9033 16.8706 12.3729 17.4381 11.6736 17.4381Z" fill="white"/>
</svg>
