<svg width="16" height="14" viewBox="0 0 16 14" fill="none" xmlns="http://www.w3.org/2000/svg">
<path fill-rule="evenodd" clip-rule="evenodd" d="M6.40025 11.494H1.14941C0.804414 11.494 0.524414 11.214 0.524414 10.869C0.524414 10.524 0.804414 10.244 1.14941 10.244H6.40025C6.74525 10.244 7.02525 10.524 7.02525 10.869C7.02525 11.214 6.74525 11.494 6.40025 11.494" fill="white"/>
<path fill-rule="evenodd" clip-rule="evenodd" d="M13.9922 3.41699H8.74219C8.39719 3.41699 8.11719 3.13699 8.11719 2.79199C8.11719 2.44699 8.39719 2.16699 8.74219 2.16699H13.9922C14.3372 2.16699 14.6172 2.44699 14.6172 2.79199C14.6172 3.13699 14.3372 3.41699 13.9922 3.41699" fill="white"/>
<mask id="mask0_2435_229" style="mask-type:luminance" maskUnits="userSpaceOnUse" x="0" y="0" width="6" height="6">
<path fill-rule="evenodd" clip-rule="evenodd" d="M0.5 0.166992H5.68817V5.32666H0.5V0.166992Z" fill="white"/>
</mask>
<g mask="url(#mask0_2435_229)">
<path fill-rule="evenodd" clip-rule="evenodd" d="M3.09417 1.41669C2.35333 1.41669 1.75 2.01335 1.75 2.74752C1.75 3.48085 2.35333 4.07669 3.09417 4.07669C3.83583 4.07669 4.43833 3.48085 4.43833 2.74752C4.43833 2.01335 3.83583 1.41669 3.09417 1.41669M3.09417 5.32669C1.66417 5.32669 0.5 4.17002 0.5 2.74752C0.5 1.32502 1.66417 0.166687 3.09417 0.166687C4.525 0.166687 5.68833 1.32502 5.68833 2.74752C5.68833 4.17002 4.525 5.32669 3.09417 5.32669" fill="white"/>
</g>
<path fill-rule="evenodd" clip-rule="evenodd" d="M12.4895 9.50665C11.7479 9.50665 11.1445 10.1033 11.1445 10.8367C11.1445 11.5708 11.7479 12.1667 12.4895 12.1667C13.2304 12.1667 13.8329 11.5708 13.8329 10.8367C13.8329 10.1033 13.2304 9.50665 12.4895 9.50665M12.4895 13.4167C11.0587 13.4167 9.89453 12.2592 9.89453 10.8367C9.89453 9.41415 11.0587 8.25665 12.4895 8.25665C13.9195 8.25665 15.0829 9.41415 15.0829 10.8367C15.0829 12.2592 13.9195 13.4167 12.4895 13.4167" fill="white"/>
</svg>
