<svg width="37" height="35" viewBox="0 0 37 35" fill="none" xmlns="http://www.w3.org/2000/svg">
<mask id="mask0_2476_300" style="mask-type:luminance" maskUnits="userSpaceOnUse" x="0" y="0" width="37" height="35">
<path fill-rule="evenodd" clip-rule="evenodd" d="M0 0H36.7437V35H0V0Z" fill="white"/>
</mask>
<g mask="url(#mask0_2476_300)">
<path fill-rule="evenodd" clip-rule="evenodd" d="M3.27305 16.3739C5.78933 24.2028 15.7306 30.533 18.3725 32.0998C21.0234 30.5168 31.0365 24.1166 33.472 16.3811C35.0712 11.3809 33.5869 5.04709 27.6892 3.14642C24.8319 2.22929 21.499 2.78747 19.1981 4.56789C18.7171 4.93761 18.0495 4.94479 17.5649 4.57866C15.1276 2.74619 11.9436 2.20955 9.04147 3.14642C3.1528 5.0453 1.6739 11.3791 3.27305 16.3739M18.3744 35.0002C18.1518 35.0002 17.9311 34.9464 17.7301 34.8369C17.1683 34.53 3.93539 27.236 0.710167 17.196C0.708372 17.196 0.708372 17.1942 0.708372 17.1942C-1.31614 10.873 0.938104 2.92929 8.21594 0.583515C11.6332 -0.522069 15.3574 -0.0356838 18.369 1.86499C21.2873 0.0199544 25.164 -0.489763 28.5131 0.583515C35.7981 2.93288 38.0595 10.8748 36.0368 17.1942C32.9157 27.1193 19.5859 34.5228 19.0205 34.8333C18.8195 34.9446 18.5969 35.0002 18.3744 35.0002" fill="white"/>
</g>
<path fill-rule="evenodd" clip-rule="evenodd" d="M28.9921 13.6853C28.2975 13.6853 27.7088 13.1522 27.6514 12.4487C27.533 10.9734 26.5458 9.72778 25.1405 9.2737C24.4316 9.04397 24.0439 8.28477 24.2718 7.57943C24.5034 6.87228 25.2554 6.4882 25.9661 6.71075C28.4124 7.50225 30.1264 9.66855 30.3364 12.2297C30.3956 12.9709 29.8446 13.6207 29.1034 13.6799C29.0657 13.6835 29.0298 13.6853 28.9921 13.6853Z" fill="white"/>
</svg>
