<svg width="18" height="18" viewBox="0 0 18 18" fill="none" xmlns="http://www.w3.org/2000/svg">
<mask id="mask0_2435_194" style="mask-type:luminance" maskUnits="userSpaceOnUse" x="0" y="0" width="17" height="17">
<path fill-rule="evenodd" clip-rule="evenodd" d="M0.666504 0.666687H16.8972V16.8975H0.666504V0.666687Z" fill="white"/>
</mask>
<g mask="url(#mask0_2435_194)">
<path fill-rule="evenodd" clip-rule="evenodd" d="M8.78234 1.91669C4.9965 1.91669 1.9165 4.99585 1.9165 8.78169C1.9165 12.5675 4.9965 15.6475 8.78234 15.6475C12.5673 15.6475 15.6473 12.5675 15.6473 8.78169C15.6473 4.99585 12.5673 1.91669 8.78234 1.91669M8.78234 16.8975C4.30734 16.8975 0.666504 13.2567 0.666504 8.78169C0.666504 4.30669 4.30734 0.666687 8.78234 0.666687C13.2573 0.666687 16.8973 4.30669 16.8973 8.78169C16.8973 13.2567 13.2573 16.8975 8.78234 16.8975" fill="white"/>
</g>
<mask id="mask1_2435_194" style="mask-type:luminance" maskUnits="userSpaceOnUse" x="13" y="13" width="5" height="5">
<path fill-rule="evenodd" clip-rule="evenodd" d="M13.3667 13.7558H17.5534V17.9348H13.3667V13.7558Z" fill="white"/>
</mask>
<g mask="url(#mask1_2435_194)">
<path fill-rule="evenodd" clip-rule="evenodd" d="M16.9286 17.9348C16.7694 17.9348 16.6094 17.8739 16.4869 17.7523L13.5502 14.8239C13.3061 14.5798 13.3052 14.1839 13.5494 13.9398C13.7927 13.6939 14.1886 13.6956 14.4336 13.9381L17.3702 16.8673C17.6144 17.1114 17.6152 17.5064 17.3711 17.7506C17.2494 17.8739 17.0886 17.9348 16.9286 17.9348" fill="white"/>
</g>
</svg>
