<svg width="31" height="35" viewBox="0 0 31 35" fill="none" xmlns="http://www.w3.org/2000/svg">
<g clip-path="url(#clip0_2417_764)">
<path d="M20.7051 9.46844C20.7051 8.01804 19.1092 5.60145 19.1092 5.60145C19.1092 5.60145 16.7015 3.99969 15.2564 3.99969C13.8113 3.99969 12.4254 4.57587 11.4036 5.60145C10.3818 6.62704 9.80769 8.01804 9.80769 9.46844C9.80769 10.9188 10.3818 12.3098 11.4036 13.3354C12.4254 14.361 13.8113 14.9372 15.2564 14.9372C16.7015 14.9372 18.0874 14.361 19.1092 13.3354C20.1311 12.3098 20.7051 10.9188 20.7051 9.46844ZM6.53846 9.46844C6.53846 7.1478 7.45696 4.9222 9.09189 3.28126C10.7268 1.64032 12.9443 0.718445 15.2564 0.718445C17.5686 0.718445 19.786 1.64032 21.4209 3.28126C23.0559 4.9222 23.9744 7.1478 23.9744 9.46844C23.9744 11.7891 23.0559 14.0147 21.4209 15.6556C19.786 17.2966 17.5686 18.2184 15.2564 18.2184C12.9443 18.2184 10.7268 17.2966 9.09189 15.6556C7.45696 14.0147 6.53846 11.7891 6.53846 9.46844ZM3.35777 32.4372H27.1619C26.5557 28.11 22.8506 24.7809 18.3758 24.7809H12.1506C7.67588 24.7809 3.97075 28.11 3.36458 32.4372H3.35777ZM0 33.6882C0 26.9548 5.4351 21.4997 12.1438 21.4997H18.369C25.0777 21.4997 30.5128 26.9548 30.5128 33.6882C30.5128 34.8093 29.607 35.7184 28.49 35.7184H2.02284C0.905849 35.7184 0 34.8093 0 33.6882Z" fill="white"/>
</g>
<defs>
<clipPath id="clip0_2417_764">
<rect width="30.5128" height="35" fill="white"/>
</clipPath>
</defs>
</svg>
